<svg width="72" height="37" viewBox="0 0 72 37" fill="none" xmlns="http://www.w3.org/2000/svg">
<path d="M45.6385 31.0842H42.617V15.9385H45.6385V31.0842Z" fill="url(#paint0_linear_2327_669)"/>
<path d="M31.5732 18.9697V25.0323H34.5947C35.0088 25.0323 35.3983 24.9548 35.7633 24.7999C36.1283 24.6379 36.4476 24.4197 36.7214 24.1451C36.9951 23.8705 37.2092 23.5501 37.3636 23.1839C37.525 22.8107 37.6057 22.4164 37.6057 22.001C37.6057 21.5856 37.525 21.1948 37.3636 20.8286C37.2092 20.4554 36.9951 20.1315 36.7214 19.8569C36.4476 19.5823 36.1283 19.3676 35.7633 19.2127C35.3983 19.0507 35.0088 18.9697 34.5947 18.9697H31.5732ZM31.5732 31.0842H28.5517V15.9385H34.5947C35.1492 15.9385 35.6826 16.0124 36.195 16.1603C36.7073 16.3011 37.1846 16.5053 37.6268 16.7729C38.0759 17.0334 38.483 17.3502 38.848 17.7234C39.22 18.0896 39.5358 18.498 39.7955 18.9486C40.0622 19.3992 40.2658 19.8816 40.4061 20.3956C40.5535 20.9096 40.6272 21.4447 40.6272 22.001C40.6272 22.522 40.5605 23.029 40.4272 23.5219C40.3008 24.0148 40.1149 24.483 39.8692 24.9266C39.6306 25.3702 39.3358 25.7786 38.9849 26.1518C38.6339 26.525 38.2409 26.8489 37.8057 27.1235L39.4797 31.0842H36.2687L34.9527 28.0318L31.5732 28.053V31.0842Z" fill="url(#paint1_linear_2327_669)"/>
<path d="M17.7185 18.9697V25.0323H20.74C21.1541 25.0323 21.5436 24.9548 21.9086 24.7999C22.2736 24.6379 22.5929 24.4197 22.8666 24.1451C23.1404 23.8705 23.3544 23.5501 23.5088 23.1839C23.6703 22.8107 23.751 22.4164 23.751 22.001C23.751 21.5856 23.6703 21.1948 23.5088 20.8286C23.3544 20.4554 23.1404 20.1315 22.8666 19.8569C22.5929 19.5823 22.2736 19.3676 21.9086 19.2127C21.5436 19.0507 21.1541 18.9697 20.74 18.9697H17.7185ZM17.7185 31.0842H14.697V15.9385H20.74C21.2945 15.9385 21.8279 16.0124 22.3402 16.1603C22.8526 16.3011 23.3299 16.5053 23.772 16.7729C24.2212 17.0334 24.6283 17.3502 24.9933 17.7234C25.3652 18.0896 25.6811 18.498 25.9408 18.9486C26.2075 19.3992 26.411 19.8816 26.5514 20.3956C26.6988 20.9096 26.7725 21.4447 26.7725 22.001C26.7725 22.8319 26.6146 23.617 26.2987 24.3563C25.9829 25.0886 25.5512 25.7293 25.0038 26.2786C24.4563 26.8278 23.8141 27.2608 23.0772 27.5777C22.3472 27.8945 21.5682 28.053 20.74 28.053H17.7185V31.0842Z" fill="url(#paint2_linear_2327_669)"/>
<path d="M12.0755 25.0323C12.0755 25.8702 11.9176 26.6588 11.6018 27.3981C11.2859 28.1304 10.8543 28.7712 10.3068 29.3204C9.75937 29.8626 9.11717 30.2921 8.38022 30.6089C7.65028 30.9258 6.86771 31.0842 6.03249 31.0842C5.19728 31.0842 4.4112 30.9258 3.67424 30.6089C2.94431 30.2921 2.30561 29.8626 1.75816 29.3204C1.21773 28.7712 0.789593 28.1304 0.473756 27.3981C0.157919 26.6588 0 25.8702 0 25.0323V15.9385H3.01098V25.0323C3.01098 25.4477 3.08819 25.8385 3.2426 26.2046C3.40402 26.5708 3.6216 26.8912 3.89533 27.1658C4.16905 27.4404 4.4884 27.6587 4.85337 27.8206C5.22535 27.9755 5.6184 28.053 6.03249 28.053C6.44659 28.053 6.83612 27.9755 7.20109 27.8206C7.57308 27.6587 7.89593 27.4404 8.16966 27.1658C8.44339 26.8912 8.65745 26.5708 8.81186 26.2046C8.97329 25.8385 9.054 25.4477 9.054 25.0323V15.9385H12.0755V25.0323Z" fill="url(#paint3_linear_2327_669)"/>
<path d="M48.281 31.0842V22.001C48.281 21.1631 48.4389 20.378 48.7548 19.6457C49.0706 18.9064 49.4987 18.2621 50.0392 17.7129C50.5866 17.1636 51.2253 16.7306 51.9552 16.4137C52.6922 16.0969 53.4783 15.9385 54.3135 15.9385C55.1487 15.9385 55.9313 16.0969 56.6612 16.4137C57.3982 16.7306 58.0404 17.1636 58.5878 17.7129C59.1353 18.2621 59.5669 18.9064 59.8828 19.6457C60.1986 20.378 60.3565 21.1631 60.3565 22.001V31.0842H48.281Z" fill="url(#paint4_linear_2327_669)"/>
<path fill-rule="evenodd" clip-rule="evenodd" d="M0 33.4843H62.1802C62.4032 33.4843 62.6094 33.3929 62.7625 33.2398C62.9151 33.086 63.0069 32.8773 63.0069 32.6522V19.0348C63.0069 18.0651 63.7898 17.2764 64.7579 17.2764H67.5226C67.5405 17.2764 67.557 17.276 67.5722 17.2754C67.5424 17.1826 67.4761 17.0704 67.3592 16.9692L67.327 16.9414L55.1654 3.76331C54.9757 3.61248 54.6963 3.5157 54.3757 3.5157C54.04 3.5157 53.7501 3.62189 53.5602 3.78574L53.5594 3.78636L42.7617 13.172L40.4759 10.517L51.2751 1.13003C52.153 0.369954 53.2776 0 54.3757 0C55.4746 0 56.5984 0.37005 57.4771 1.12964L57.5094 1.15757L69.6773 14.3425C70.3326 14.9219 70.7681 15.6657 70.9649 16.4361C71.1327 17.0928 71.131 17.7848 70.9351 18.4276L70.6735 19.2859L70.5466 19.4487C70.3175 19.8125 70.0331 19.9191 69.6522 20.1777C69.0713 20.5724 68.3512 20.7927 67.5226 20.7927H66.5079V32.6522C66.5079 33.8504 66.0199 34.9381 65.2389 35.7237L65.2386 35.7239C64.4572 36.5092 63.3734 37 62.1802 37H0V33.4843Z" fill="url(#paint5_linear_2327_669)"/>
<path d="M51.6333 19.5436H56.929V29.7897H51.6333V19.5436Z" fill="#F5F5F5"/>
<path d="M52.3898 22.5795H54.092V25.3805H52.3898V22.5795Z" fill="#5FD6F8"/>
<path d="M54.4531 25.8515H56.1725V28.4615H54.4531V25.8515Z" fill="#63D8FA"/>
<path d="M52.3898 25.8515H54.1092V28.4615H52.3898V25.8515Z" fill="#5CD4F8"/>
<path d="M54.4703 22.5795H56.1725V25.3805H54.4703V22.5795Z" fill="#66D9FA"/>
<path d="M56.3616 25.8051C56.3616 25.7003 56.4463 25.6154 56.5508 25.6154C56.6552 25.6154 56.7399 25.7003 56.7399 25.8051C56.7399 25.9099 56.6552 25.9949 56.5508 25.9949C56.4463 25.9949 56.3616 25.9099 56.3616 25.8051Z" fill="#64D8FA"/>
<path d="M51.6333 29.4103H56.929L57.4964 29.7897H51.0659L51.6333 29.4103Z" fill="#F5F5F5"/>
<path d="M51.0659 30.1692H57.4964L59.0095 31.118H49.742L51.0659 30.1692Z" fill="#F5F5F5"/>
<path d="M57.4964 29.7897H51.0659V30.1692H57.4964V29.7897Z" fill="#D9D9D9"/>
<path d="M52.3898 22.0103C52.3898 20.9623 53.2366 20.1128 54.2812 20.1128C55.3257 20.1128 56.1725 20.9623 56.1725 22.0103H52.3898Z" fill="#67D9FB"/>
<defs>
<linearGradient id="paint0_linear_2327_669" x1="56.3054" y1="1.20652" x2="4.44567" y2="35.8003" gradientUnits="userSpaceOnUse">
<stop stop-color="#79E1FF"/>
<stop offset="1" stop-color="#15B6E5"/>
</linearGradient>
<linearGradient id="paint1_linear_2327_669" x1="56.3054" y1="1.20652" x2="4.44567" y2="35.8003" gradientUnits="userSpaceOnUse">
<stop stop-color="#79E1FF"/>
<stop offset="1" stop-color="#15B6E5"/>
</linearGradient>
<linearGradient id="paint2_linear_2327_669" x1="56.3054" y1="1.20652" x2="4.44567" y2="35.8003" gradientUnits="userSpaceOnUse">
<stop stop-color="#79E1FF"/>
<stop offset="1" stop-color="#15B6E5"/>
</linearGradient>
<linearGradient id="paint3_linear_2327_669" x1="56.3054" y1="1.20652" x2="4.44567" y2="35.8003" gradientUnits="userSpaceOnUse">
<stop stop-color="#79E1FF"/>
<stop offset="1" stop-color="#15B6E5"/>
</linearGradient>
<linearGradient id="paint4_linear_2327_669" x1="56.3054" y1="1.20652" x2="4.44567" y2="35.8003" gradientUnits="userSpaceOnUse">
<stop stop-color="#79E1FF"/>
<stop offset="1" stop-color="#15B6E5"/>
</linearGradient>
<linearGradient id="paint5_linear_2327_669" x1="56.3054" y1="1.20652" x2="4.44567" y2="35.8003" gradientUnits="userSpaceOnUse">
<stop stop-color="#79E1FF"/>
<stop offset="1" stop-color="#15B6E5"/>
</linearGradient>
</defs>
</svg>
